<?xml version="1.0" encoding="UTF-8" standalone="no"?>
<!-- Created with Inkscape (http://www.inkscape.org/) -->

<svg
   xmlns:dc="http://purl.org/dc/elements/1.1/"
   xmlns:cc="http://creativecommons.org/ns#"
   xmlns:rdf="http://www.w3.org/1999/02/22-rdf-syntax-ns#"
   xmlns:svg="http://www.w3.org/2000/svg"
   xmlns="http://www.w3.org/2000/svg"
   xmlns:sodipodi="http://sodipodi.sourceforge.net/DTD/sodipodi-0.dtd"
   xmlns:inkscape="http://www.inkscape.org/namespaces/inkscape"
   width="17.996126mm"
   height="24.764967mm"
   viewBox="0 0 17.996126 24.764967"
   version="1.1"
   id="svg4561"
   inkscape:version="0.91 r13725"
   sodipodi:docname="rooster2.svg">
  <defs
     id="defs4555">
    <inkscape:path-effect
       effect="spiro"
       id="path-effect5217"
       is_visible="true" />
    <inkscape:path-effect
       effect="spiro"
       id="path-effect5213"
       is_visible="true" />
    <inkscape:path-effect
       effect="spiro"
       id="path-effect5205"
       is_visible="true" />
    <inkscape:path-effect
       effect="spiro"
       id="path-effect5177"
       is_visible="true" />
    <inkscape:path-effect
       effect="spiro"
       id="path-effect5169"
       is_visible="true" />
    <inkscape:path-effect
       effect="spiro"
       id="path-effect5157"
       is_visible="true" />
    <inkscape:path-effect
       effect="spiro"
       id="path-effect5151"
       is_visible="true" />
    <inkscape:path-effect
       effect="bspline"
       id="path-effect5147"
       is_visible="true"
       weight="33.333333"
       steps="2"
       helper_size="0"
       apply_no_weight="true"
       apply_with_weight="true"
       only_selected="false" />
    <inkscape:path-effect
       effect="simplify"
       id="path-effect5139"
       is_visible="true"
       steps="1"
       threshold="0.00814485"
       smooth_angles="360"
       helper_size="0"
       simplify_individual_paths="false"
       simplify_just_coalesce="false"
       simplifyindividualpaths="false"
       simplifyJustCoalesce="false" />
  </defs>
  <sodipodi:namedview
     id="base"
     pagecolor="#ffffff"
     bordercolor="#666666"
     borderopacity="1.0"
     inkscape:pageopacity="0.0"
     inkscape:pageshadow="2"
     inkscape:zoom="3.4428917"
     inkscape:cx="-0.92795745"
     inkscape:cy="29.157657"
     inkscape:document-units="mm"
     inkscape:current-layer="layer5"
     showgrid="false"
     showborder="false"
     inkscape:window-width="1171"
     inkscape:window-height="599"
     inkscape:window-x="165"
     inkscape:window-y="42"
     inkscape:window-maximized="0"
     fit-margin-top="0"
     fit-margin-left="0"
     fit-margin-right="0"
     fit-margin-bottom="0"
     inkscape:snap-global="false" />
  <metadata
     id="metadata4558">
    <rdf:RDF>
      <cc:Work
         rdf:about="">
        <dc:format>image/svg+xml</dc:format>
        <dc:type
           rdf:resource="http://purl.org/dc/dcmitype/StillImage" />
        <dc:title></dc:title>
      </cc:Work>
    </rdf:RDF>
  </metadata>
  <g
     inkscape:groupmode="layer"
     id="layer5"
     inkscape:label="head"
     transform="translate(30.12335,-152.28872)"
     sodipodi:insensitive="true">
    <path
       style="fill:none;stroke:#000000;stroke-width:0.62362289;stroke-linecap:butt;stroke-linejoin:miter;stroke-miterlimit:4;stroke-dasharray:none;stroke-opacity:1"
       d="m -15.099223,161.42507 c 0.129033,0.53139 0.458046,0.86281 0.738383,1.26581 -1.034943,-0.49208 -1.525903,-0.89602 -2.42611,-0.56258"
       id="path5161"
       inkscape:connector-curvature="0"
       sodipodi:nodetypes="ccc" />
    <path
       style="fill:none;stroke:#000000;stroke-width:0.62362289;stroke-linecap:butt;stroke-linejoin:miter;stroke-miterlimit:4;stroke-dasharray:none;stroke-opacity:1"
       d="m -16.630941,162.01134 c -0.143442,0.24824 -0.222162,0.53352 -0.22633,0.82019 -0.0061,0.42103 0.146734,0.83286 0.371403,1.18898 0.224669,0.35613 0.51901,0.66256 0.820634,0.95637 0.301625,0.2938 0.613667,0.57876 0.88254,0.90281 0.268872,0.32405 0.495505,0.69233 0.597659,1.10082 0.102888,0.41142 0.07342,0.85487 -0.083,1.24906 -0.156423,0.3942 -0.43903,0.73719 -0.796024,0.96613 -0.160281,0.0686 -0.324777,0.12734 -0.492252,0.1758 -0.674282,0.19509 -1.407421,0.21845 -2.074501,0 -0.393226,-0.12877 -0.761139,-0.34146 -1.054833,-0.63293 -0.475945,-0.47233 -0.735982,-1.13041 -0.825236,-1.79498 -0.08926,-0.66458 -0.01978,-1.34035 0.08685,-2.00236 0.104976,-0.65173 0.245905,-1.29767 0.421933,-1.9339"
       id="path5167"
       inkscape:connector-curvature="0"
       inkscape:original-d="m -16.630941,162.01134 c -1.190881,1.35999 -0.973787,0.0727 -0.22633,0.82019 0.23278,0.23278 2.445749,3.92255 2.672236,4.14898 0.531991,0.532 -0.676379,2.08006 -0.879026,2.21519 -0.215295,-0.7121 -0.492252,0.35002 -0.492252,0.1758 0,-0.27905 -1.379453,-0.34759 -2.074501,0 -2.057496,1.02872 -1.054833,1.83458 -1.054833,-0.63293 0,-0.16126 -0.927344,-3.60843 -0.738381,-3.79734 0.435548,-0.43556 0.347031,-1.48453 0.421933,-1.9339"
       sodipodi:nodetypes="csccscscc"
       inkscape:path-effect="#path-effect5169" />
    <path
       style="fill:none;stroke:#000000;stroke-width:0.62362289;stroke-linecap:butt;stroke-linejoin:miter;stroke-miterlimit:4;stroke-dasharray:none;stroke-opacity:1"
       d="m -19.002095,163.00733 c -2.250319,3.26084 0.571011,8.5687 1.195474,11.07571 0.283784,1.13928 0.07038,1.84253 0.07038,2.88318"
       id="path5187"
       inkscape:connector-curvature="0"
       sodipodi:nodetypes="csc" />
    <path
       style="fill:none;stroke:#000000;stroke-width:0.62362289;stroke-linecap:butt;stroke-linejoin:miter;stroke-miterlimit:4;stroke-dasharray:none;stroke-opacity:1"
       d="m -17.736299,176.96622 c -0.385899,-1.32044 -1.657873,-2.68274 -2.144826,-3.65667 -0.502348,0.77606 -0.981154,1.66756 -1.125149,2.53162 -0.155849,-1.14153 -0.822306,-2.12099 -0.984513,-3.09422"
       id="path5189"
       inkscape:connector-curvature="0"
       sodipodi:nodetypes="cc" />
    <path
       style="fill:none;stroke:#000000;stroke-width:0.62362289;stroke-linecap:butt;stroke-linejoin:miter;stroke-miterlimit:4;stroke-dasharray:none;stroke-opacity:1"
       d="m -21.873777,173.02 c -0.943441,0.24588 -1.320656,0.82998 -1.55477,1.53226"
       id="path5191"
       inkscape:connector-curvature="0"
       sodipodi:nodetypes="cc" />
    <path
       style="fill:none;stroke:#000000;stroke-width:0.62362289;stroke-linecap:butt;stroke-linejoin:miter;stroke-miterlimit:4;stroke-dasharray:none;stroke-opacity:1"
       d="m -23.467548,174.78631 c -0.338328,-1.22652 -0.527418,-2.4886 -0.527418,-3.72712 -0.996996,0.78676 -1.695413,1.31636 -2.144822,2.21517 -0.438396,-1.08203 -0.244693,-2.28973 0.07037,-3.23484 -0.692713,-0.10298 -1.987904,0.65444 -2.215143,1.33619 -0.169924,-1.09557 0.486911,-1.97215 0.632898,-2.84804"
       id="path5195"
       inkscape:connector-curvature="0" />
    <path
       style="fill:none;stroke:#000000;stroke-width:0.62362289;stroke-linecap:butt;stroke-linejoin:miter;stroke-miterlimit:4;stroke-dasharray:none;stroke-opacity:1"
       d="m -27.768719,168.7616 c -0.938993,0.31124 -1.559772,0.87541 -2.062983,1.27792"
       id="path5197"
       inkscape:connector-curvature="0"
       sodipodi:nodetypes="cc" />
    <path
       style="fill:none;stroke:#000000;stroke-width:0.62362289;stroke-linecap:butt;stroke-linejoin:miter;stroke-miterlimit:4;stroke-dasharray:none;stroke-opacity:1"
       d="m -29.831702,170.03952 c 0.176217,-0.46591 0.29491,-0.99017 0.457101,-1.47676 0.238897,-0.71667 0.53844,-1.43946 0.773536,-2.14482 0.885246,-2.65568 3.779149,-7.61215 6.469635,-8.50897 0.761722,-0.25386 1.998867,-0.19835 2.707401,-0.31644"
       id="path5199"
       inkscape:connector-curvature="0"
       sodipodi:nodetypes="csccc" />
    <path
       style="fill:none;stroke:#000000;stroke-width:0.62362289;stroke-linecap:butt;stroke-linejoin:miter;stroke-miterlimit:4;stroke-dasharray:none;stroke-opacity:1"
       d="m -19.775051,157.47552 c -1.089993,-3.26999 -5.176541,2.60979 -7.208601,1.31248 -1.87651,-2.35183 1.039097,-2.58576 2.426109,-3.02384"
       id="path5201"
       inkscape:connector-curvature="0"
       sodipodi:nodetypes="ccc" />
    <path
       style="fill:none;stroke:#000000;stroke-width:0.62362289;stroke-linecap:butt;stroke-linejoin:miter;stroke-miterlimit:4;stroke-dasharray:none;stroke-opacity:1"
       d="m -24.791557,156.03717 c -1.378622,-2.88441 2.7406,-4.12263 4.277537,-1.7146 0.247143,-1.30312 0.705158,-1.46831 2.004177,-1.68772 2.138462,-0.36125 3.30722,2.11793 3.727069,3.79735"
       id="path5219"
       inkscape:connector-curvature="0"
       sodipodi:nodetypes="ccsc" />
    <path
       style="fill:none;stroke:#000000;stroke-width:0.62362289;stroke-linecap:butt;stroke-linejoin:miter;stroke-miterlimit:4;stroke-dasharray:none;stroke-opacity:1"
       d="m -15.094794,156.23721 c 4.050706,-0.9484 2.935595,6.4513 0.190581,5.42188"
       id="path4505"
       inkscape:connector-curvature="0"
       sodipodi:nodetypes="cc" />
    <ellipse
       style="opacity:1;fill:none;fill-opacity:1;stroke:#000000;stroke-width:0.62362289;stroke-miterlimit:4;stroke-dasharray:none;stroke-dashoffset:0;stroke-opacity:1"
       id="path4507"
       cx="18.327347"
       cy="159.95921"
       rx="0.49225459"
       ry="0.509835"
       transform="scale(-1,1)" />
  </g>
</svg>
